<svg id="O_copy_Image" data-name="O copy Image" xmlns="http://www.w3.org/2000/svg" viewBox="0 0 512 512"><defs><style>.cls-1{fill:#1c2931;}.cls-2{fill:#fff;}.cls-3{fill:none;stroke:#fff;stroke-miterlimit:10;stroke-width:4px;}</style></defs><rect class="cls-1" width="512" height="512"/><path class="cls-2" d="M376.22,104.07Q323,51.61,255.72,51.62q-72.56,0-124.42,55.8T79.42,250.94q0,38.08,9.61,70.67a199.54,199.54,0,0,0,39.64,73.58q49.26,58,127.64,58,72.56,0,122.83-54.63,29.64-32.22,41.79-76.93,8.47-31.14,8.48-68.34Q429.41,156.52,376.22,104.07Zm-59.59,271.3q-4.08,31.19-20.25,45t-41.82,13.84q-30.88,0-45.31-17.19t-17.78-46.19q-1.82-15.71-2.65-49.24-.7-28.38-.7-69.51,0-90.61,3.94-121.81T211.87,85q15.87-14.13,42.69-14.14,31.76,0,45.6,17.49t17.2,46.05q3.34,28.55,3.35,118.3,0,40.33-.79,68.93Q318.91,357.92,316.63,375.37Z"/><path class="cls-1" d="M429.41,253.27q0,37.2-8.48,68.34h-101q.79-28.61.79-68.93,0-89.74-3.35-118.3t-17.2-46q-13.83-17.47-45.6-17.49-26.81,0-42.69,14.14t-19.81,45.31q-3.94,31.19-3.94,121.81,0,41.13.7,69.51H89q-9.6-32.58-9.61-70.67,0-87.72,51.88-143.52t124.42-55.8q67.32,0,120.5,52.45T429.41,253.27Z"/><path class="cls-3" d="M376.22,104.07Q323,51.61,255.72,51.62q-72.56,0-124.42,55.8T79.42,250.94q0,38.08,9.61,70.67a199.54,199.54,0,0,0,39.64,73.58q49.26,58,127.64,58,72.56,0,122.83-54.63,29.64-32.22,41.79-76.93,8.47-31.14,8.48-68.34Q429.41,156.52,376.22,104.07Zm-59.59,271.3q-4.08,31.19-20.25,45t-41.82,13.84q-30.88,0-45.31-17.19t-17.78-46.19q-1.82-15.71-2.65-49.24-.7-28.38-.7-69.51,0-90.61,3.94-121.81T211.87,85q15.87-14.13,42.69-14.14,31.76,0,45.6,17.49t17.2,46.05q3.34,28.55,3.35,118.3,0,40.33-.79,68.93Q318.91,357.92,316.63,375.37Z"/></svg>
